<svg version="1.1" id="Layer_1" xmlns="http://www.w3.org/2000/svg" xmlns:xlink="http://www.w3.org/1999/xlink" x="0px" y="0px" viewBox="0 0 50 50" style="enable-background:new 0 0 50 50;" xml:space="preserve">
<g id="Layer_1_1_">
	<path d="M49,1H1v48h48V1z M47,47H3V3h44V47z" id="id_101" style="fill: rgb(50, 97, 179);"></path>
	<polygon points="21.707,8.707 20.293,7.293 12,15.586 8.707,12.293 7.293,13.707 12,18.414 	" id="id_102" style="fill: rgb(49, 96, 176);"></polygon>
	<rect x="25" y="12" width="18" height="2" id="id_103" style="fill: rgb(50, 100, 175);"></rect>
	<polygon points="21.707,20.707 20.293,19.293 12,27.586 8.707,24.293 7.293,25.707 12,30.414 	" id="id_104" style="fill: rgb(48, 95, 176);"></polygon>
	<rect x="25" y="24" width="18" height="2" id="id_105" style="fill: rgb(45, 95, 181);"></rect>
	<polygon points="21.707,32.707 20.293,31.293 12,39.586 8.707,36.293 7.293,37.707 12,42.414 	" id="id_106" style="fill: rgb(50, 100, 175);"></polygon>
	<rect x="25" y="36" width="18" height="2" id="id_107" style="fill: rgb(50, 100, 175);"></rect>
</g>
</svg>