<?xml version="1.0" encoding="UTF-8"?>
<svg id="Camada_1" data-name="Camada 1" xmlns="http://www.w3.org/2000/svg" version="1.1" viewBox="0 0 850.4 850.4">
  <defs>
    <style>
      .cls-1 {
        fill: #000;
        stroke-width: 0px;
      }
    </style>
  </defs>
  <path class="cls-1" d="M150.3,507.8c3.7,3.6,8.7,5.7,13.9,5.8h64.7v132.2l-22.6,15.1h-16.8c-10.8,0-19.6,8.8-19.6,19.6v19.6c0,10.9,8.8,19.6,19.6,19.6h510.6c10.8,0,19.6-8.8,19.6-19.6v-19.6c0-10.8-8.8-19.6-19.6-19.6h-16.6l-22.6-15.1V219c0-14.1-10-26.2-23.8-28.9l-30.9-46.3c-5.5-8.2-14.6-13.1-24.5-13.1h-273.6c-9.8,0-19.1,4.9-24.5,13.1l-30.9,46.3c-13.8,2.7-23.8,14.8-23.8,28.9v137.5h-17.5c-5.5-6.3-13.5-9.8-21.8-9.8s-16.3,3.6-21.8,9.8h-17.4c-10.8,0-19.6,8.8-19.6,19.6v103.9c0,5.2,2.1,10.2,5.8,13.9l13.8,13.9ZM376.1,287.7v50.4c-5.3,1.8-9.5,5.9-11.6,11.1l-15.1,37.7c-13.1,3.2-22.4,15-22.4,28.5v9.8c0,10.9,8.8,19.6,19.6,19.6h196.4c10.8,0,19.6-8.8,19.6-19.6v-9.8c0-13.5-9.3-25.3-22.4-28.5l-15.1-37.7c-2.1-5.2-6.3-9.2-11.6-11.1v-50.4h68.8v274.9h-19.6v-19.6c0-10.8-8.8-19.6-19.6-19.6h-196.4c-10.9,0-19.6,8.8-19.6,19.6v19.6h-19.7v-274.9h68.8ZM454.7,287.7v49.1h-19.6v-49.1h19.6ZM356.4,405.6h176.8c5.4,0,9.8,4.4,9.8,9.8v9.8h-196.4v-9.8c0-5.5,4.4-9.8,9.8-9.8h0ZM371,385.9l11.8-29.5h124.2l11.8,29.5h-147.7ZM494,336.8h-19.6v-49.1h19.6v49.1ZM415.4,336.8h-19.6v-49.1h19.6v49.1ZM611.8,611.8c-5.4,0-9.8,4.4-9.8,9.8v19.6h-19.6v-19.6c0-5.4-4.4-9.8-9.8-9.8s-9.8,4.4-9.8,9.8v19.6h-19.6v-19.6c0-5.4-4.4-9.8-9.8-9.8s-9.8,4.4-9.8,9.8v19.6h-157.1v-19.6c0-5.4-4.4-9.8-9.8-9.8s-9.8,4.4-9.8,9.8v19.6h-19.6v-19.6c0-5.4-4.4-9.8-9.8-9.8s-9.8,4.4-9.8,9.8v19.6h-19.6v-19.6c0-5.4-4.4-9.8-9.8-9.8s-9.8,4.4-9.8,9.8v19.6h-19.6v-58.9h392.8v58.9h-19.6v-19.6c0-5.5-4.4-9.8-9.8-9.8h0ZM543,562.7h-196.4v-19.6h196.4v19.6h0ZM641.2,562.7h-39.2v-274.9h39.3v274.9h0ZM287.7,562.7h-39.3v-274.9h39.3v274.9h0ZM683.5,680.5h16.6v19.6H189.5v-19.6h16.6c3.9,0,7.7-1.2,10.9-3.3l24.5-16.3h406.5l24.5,16.3c3.2,2.1,7,3.3,10.9,3.3h0ZM299.9,154.6c1.8-2.7,4.9-4.4,8.1-4.4h273.6c3.3,0,6.4,1.6,8.1,4.4l23.3,34.9h-40.6v-9.8c0-5.4-4.4-9.8-9.8-9.8s-9.8,4.4-9.8,9.8v9.8h-19.6v-9.8c0-5.4-4.4-9.8-9.8-9.8s-9.8,4.4-9.8,9.8v9.8h-137.3v-9.8c0-5.4-4.4-9.8-9.8-9.8s-9.8,4.4-9.8,9.8v9.8h-19.6v-9.8c0-5.4-4.4-9.8-9.8-9.8s-9.8,4.4-9.8,9.8v9.8h-40.6l23.3-35ZM248.4,219c0-5.4,4.4-9.8,9.8-9.8h373.1c5.4,0,9.8,4.4,9.8,9.8v49.1H248.4v-49.1ZM189.5,366.3c5.4,0,9.8,4.4,9.8,9.8s-4.4,9.8-9.8,9.8-9.8-4.4-9.8-9.8c0-5.5,4.4-9.8,9.8-9.8h0ZM150.3,376.1h9.8c0,12.5,7.9,23.5,19.6,27.6v41.1c-5.4,0-9.8,4.4-9.8,9.8s4.4,9.8,9.8,9.8h19.6c5.4,0,9.8-4.4,9.8-9.8s-4.4-9.8-9.8-9.8v-41.1c11.7-4.1,19.6-15.2,19.6-27.6h9.8v117.8h-64.7l-13.9-13.9v-103.9h0Z"/>
</svg>